<?xml version="1.0" encoding="utf-8"?>
<!-- Generator: Adobe Illustrator 16.0.0, SVG Export Plug-In . SVG Version: 6.00 Build 0)  -->
<!DOCTYPE svg PUBLIC "-//W3C//DTD SVG 1.1//EN" "http://www.w3.org/Graphics/SVG/1.1/DTD/svg11.dtd">
<svg version="1.1" id="Layer_1" xmlns="http://www.w3.org/2000/svg" xmlns:xlink="http://www.w3.org/1999/xlink" x="0px" y="0px"
	 width="283.465px" height="283.462px" viewBox="0 0 283.465 283.462" enable-background="new 0 0 283.465 283.462"
	 xml:space="preserve">
<g>
	<rect width="283.465" height="283.462"/>
	<path fill="#FFFFFF" d="M51.328,85.437v57.434H36.629V85.437H16.785v-12.6h54.388v12.6H51.328z"/>
	<path fill="#FFFFFF" d="M108.974,143.92c-13.965,0-25.199-6.089-25.199-24.884V72.837h14.697v46.093
		c0,8.61,3.573,12.915,10.502,12.915c6.718,0,10.498-4.095,10.498-12.809V72.837h14.701v46.199
		C134.173,137.725,123.252,143.92,108.974,143.92z"/>
	<path fill="#FFFFFF" d="M184.885,142.87v-3.359c-2.1,1.784-5.773,4.409-13.334,4.409c-12.284,0-26.354-7.139-26.354-35.699
		c0-27.51,16.801-36.436,31.396-36.436c11.129,0,18.164,4.62,22.258,7.666l-4.199,10.394c-3.255-1.994-9.973-5.88-18.059-5.88
		c-7.454,0-16.17,5.776-16.17,23.94c0,18.585,6.299,23.834,12.915,23.834c6.092,0,9.554-1.994,11.548-3.255V114.31h-11.653v-12.075
		h26.354v40.635H184.885z"/>
	<path fill="#FFFFFF" d="M245.049,113.785h-13.334l6.616-26.146L245.049,113.785z M267.416,142.87l-19.95-70.033h-18.062
		L209.56,142.87h15.226l4.411-17.01h18.478l4.517,17.01H267.416z"/>
	<rect x="93.451" y="227.249" fill="#F08100" width="99.21" height="14.176"/>
	<rect x="93.451" y="199.222" fill="#B9CE00" width="99.21" height="14.177"/>
	<rect x="93.451" y="171.194" fill="#C6DBF3" width="99.21" height="14.177"/>
</g>
</svg>
