<?xml version="1.0" encoding="UTF-8" standalone="no"?>
<svg width="590px" height="590px" viewBox="0 0 590 590" version="1.1" xmlns="http://www.w3.org/2000/svg" xmlns:xlink="http://www.w3.org/1999/xlink" xmlns:sketch="http://www.bohemiancoding.com/sketch/ns">
    <!-- Generator: Sketch 3.5.2 (25235) - http://www.bohemiancoding.com/sketch -->
    <title>tuga-speaker</title>
    <desc>Created with Sketch.</desc>
    <defs></defs>
    <g id="Page-1" stroke="none" stroke-width="1" fill="none" fill-rule="evenodd" sketch:type="MSPage">
        <g id="tuga-speaker" sketch:type="MSLayerGroup">
            <g id="Page-3" sketch:type="MSShapeGroup">
                <g id="tuga-speaker">
                    <rect id="Rectangle-1" fill="#F5F5F5" x="0" y="0" width="590" height="590"></rect>
                    <g id="Group" transform="translate(123.000000, 121.000000)" fill="#EAEAEA">
                        <path d="M259.053929,239.350588 C253.932321,240.865882 249.845714,241.434118 244.485893,241.434118 C200.576429,241.434118 136.1025,87.602941 136.1025,36.404118 C136.1025,17.557647 140.550536,11.27 146.834464,5.871765 C93.096607,12.159412 28.614464,31.932353 7.996607,57.066471 C3.540357,63.362353 0.829643,73.232353 0.829643,85.807647 C0.829643,165.731176 85.921429,347.092941 145.943214,347.092941 C173.719821,347.097059 220.537143,301.333529 259.053929,239.350588" id="Shape"></path>
                        <path d="M231.026786,0.502353 C286.555357,0.502353 342.120893,9.478824 342.120893,40.904706 C342.120893,104.658235 301.792857,181.917647 281.20375,181.917647 C244.477679,181.917647 198.793929,79.524118 198.793929,28.325294 C198.798036,4.978235 207.751607,0.502353 231.026786,0.502353" id="Shape"></path>
                    </g>
                </g>
            </g>
        </g>
    </g>
</svg>