<?xml version="1.0" standalone="no"?>
<!DOCTYPE svg PUBLIC "-//W3C//DTD SVG 20010904//EN"
 "http://www.w3.org/TR/2001/REC-SVG-20010904/DTD/svg10.dtd">
<svg version="1.0" xmlns="http://www.w3.org/2000/svg"
 width="500.000000pt" height="500.000000pt" viewBox="0 0 500.000000 500.000000"
 preserveAspectRatio="xMidYMid meet">
<metadata>
Created by potrace 1.11, written by Peter Selinger 2001-2013
</metadata>
<g transform="translate(0.000000,500.000000) scale(0.100000,-0.100000)"
fill="#000000" stroke="none">
<path d="M3147 4544 c-1 -1 -29 -4 -62 -7 -120 -12 -188 -54 -225 -139 -46
-103 -28 -378 41 -638 171 -649 535 -1244 820 -1340 112 -38 201 9 323 169
136 180 296 521 380 816 26 92 64 262 72 325 2 19 6 42 9 50 5 18 17 163 20
246 4 127 -41 220 -145 297 -33 24 -152 87 -174 92 -6 1 -18 5 -26 8 -35 13
-148 45 -185 53 -22 4 -42 8 -45 9 -3 1 -30 5 -60 9 -70 10 -94 13 -150 22
-89 13 -582 37 -593 28z"/>
<path d="M2169 4476 c-2 -2 -26 -7 -54 -10 -112 -15 -116 -16 -270 -46 -138
-27 -355 -81 -460 -115 -44 -15 -87 -28 -95 -30 -35 -7 -302 -116 -370 -150
-104 -52 -225 -132 -291 -193 -102 -93 -141 -222 -134 -442 2 -74 6 -144 8
-156 3 -12 8 -45 12 -75 20 -163 97 -464 183 -719 136 -400 351 -866 554
-1200 42 -69 171 -265 177 -270 4 -3 14 -17 24 -32 9 -15 54 -74 100 -130 291
-362 549 -505 777 -431 315 104 755 547 1162 1171 l48 73 -52 -8 c-89 -13
-179 -8 -223 12 -113 52 -239 170 -365 340 -60 81 -186 277 -203 315 -4 8 -17
31 -28 50 -59 96 -192 375 -270 564 -27 66 -54 130 -59 141 -35 78 -126 352
-162 485 -115 427 -114 691 2 823 28 32 29 37 13 37 -11 0 -22 -2 -24 -4z"/>
</g>
</svg>
